<?xml version="1.0" encoding="UTF-8" standalone="no"?>
<svg width="65px" height="77px" viewBox="0 0 65 77" version="1.1" xmlns="http://www.w3.org/2000/svg" xmlns:xlink="http://www.w3.org/1999/xlink" xmlns:sketch="http://www.bohemiancoding.com/sketch/ns">
    <!-- Generator: Sketch 3.0.1 (7597) - http://www.bohemiancoding.com/sketch -->
    <title>Flaticon_20868</title>
    <description>Created with Sketch.</description>
    <defs></defs>
    <g id="Page-1" stroke="none" stroke-width="1" fill="none" fill-rule="evenodd" sketch:type="MSPage">
        <g id="Flaticon_20868" sketch:type="MSLayerGroup" transform="translate(2.000000, 0.000000)" fill="#F36E37">
            <g id="Group" sketch:type="MSShapeGroup">
                <path d="M11.96544,33.7157333 L32.39424,33.7157333 C42.60864,22.4763 22.17984,11.2394333 32.39424,-3.55271368e-15 L11.96544,-3.55271368e-15 C1.75104,11.2368667 22.1824,22.4763 11.96544,33.7157333 L11.96544,33.7157333 Z M14.62784,16.8578667 C12.56448,12.6742 15.18592,9.28363333 19.43296,9.28363333 C23.5264,9.28363333 27.67104,12.6716333 29.72928,16.8553 C31.79264,21.0389667 29.17376,24.4269667 24.92416,24.4269667 C20.83584,24.4295333 16.69632,21.0415333 14.62784,16.8578667 L14.62784,16.8578667 Z" id="Shape"></path>
                <path d="M18.9312,19.2217667 C19.67104,19.7094333 20.36992,19.9558333 21.03552,19.9558333 C21.78048,19.9558333 22.26944,19.7299667 22.49728,19.2731 C22.72512,18.8162333 22.71488,18.1129667 22.45888,17.1607333 L26.0352,17.1607333 C26.30656,17.9050667 26.26048,18.4107 25.8816,18.6879 C25.67936,18.8444667 25.28,18.9394333 24.6912,18.9728 C24.86016,19.3603667 25.02656,19.7505 25.1776,20.1406333 C25.9328,20.1406333 26.48064,20.0148667 26.82112,19.7659 C27.45088,19.3090333 27.53024,18.4415 27.03104,17.1633 L28.30592,17.1633 C28.2112,16.9528333 28.11648,16.7475 28.02432,16.5370333 L26.74944,16.5370333 C26.30144,15.7413667 25.84576,15.1356333 25.40032,14.7147 C24.58368,13.9549667 23.60832,13.5751 22.44352,13.5751 C21.63712,13.5751 21.14048,13.8702667 20.98688,14.4631667 C20.89216,14.8302 20.92544,15.5206333 21.10464,16.5396 L17.90464,16.5396 C17.64864,15.9338667 17.68448,15.4924 18.00704,15.2152 C18.18368,15.0663333 18.42944,14.9765 18.74944,14.9482667 C18.58304,14.5658333 18.4192,14.1782667 18.26048,13.7932667 C17.53088,13.8163667 17.03168,14.0602 16.77568,14.5273333 C16.52224,14.9944667 16.56576,15.6669333 16.90112,16.5396 L16.04096,16.5396 C16.13568,16.7500667 16.2304,16.9554 16.32512,17.1658667 L17.19808,17.1658667 C17.61024,18.0462333 18.18624,18.7315333 18.9312,19.2217667 L18.9312,19.2217667 Z M22.28224,15.3640667 C22.3872,14.9611 22.71744,14.7583333 23.26784,14.7583333 C23.60832,14.7583333 23.9488,14.8353333 24.27904,14.9842 C24.91392,15.2691 25.41568,15.7875667 25.79712,16.5370333 L22.33856,16.5370333 C22.23616,15.9877667 22.21568,15.6002 22.28224,15.3640667 L22.28224,15.3640667 Z M21.26592,17.1633 C21.39136,17.6561 21.39648,18.0462333 21.28128,18.3362667 C21.16608,18.6263 20.8896,18.7700333 20.45696,18.7700333 C20.096,18.7700333 19.70176,18.6494 19.26144,18.4004333 C18.82624,18.1540333 18.46272,17.7433667 18.18112,17.1633 C19.20768,17.1633 20.2368,17.1633 21.26592,17.1633 L21.26592,17.1633 Z" id="Shape"></path>
                <path d="M61.37088,60.0651333 C62.70976,58.6714333 62.83008,56.0739667 62.60992,52.6038333 C61.03552,52.4986 58.71616,52.7629667 57.8944,52.6038333 C55.90528,48.6306333 53.04064,45.5301 48.96512,43.6487333 C49.10592,41.0538333 49.45408,38.6668333 50.94912,37.4297 C47.3088,37.1781667 44.22912,39.6473 42.26304,41.9085333 C34.91328,34.2521667 13.07904,32.8892667 2.56768,43.8977 C0.7552,43.7539667 0.96256,40.0682333 3.31264,40.6611333 C-0.51712,38.0457 -2.62912,45.2144 1.07776,46.1332667 C-2.01216,50.5582 -2.304,60.0548667 1.82272,63.5455333 C2.42688,68.7841 3.35104,73.7018333 5.89056,76.9974333 L14.23104,76.9974333 C14.01088,75.2983 13.79072,73.4888 13.98016,71.5022 C19.0464,72.6546333 25.05984,72.9908667 31.10144,72.5006333 C32.03072,74.0509 32.9344,75.6268333 34.04544,76.9948667 L42.30144,76.9948667 C42.00192,74.8029333 41.67168,72.5083333 42.2656,70.2599333 C44.23936,69.8826333 54.464,67.2800333 61.37088,60.0651333 L61.37088,60.0651333 Z M49.97888,48.9643 C51.10784,48.9643 52.02944,49.8831667 52.02944,51.0202 C52.02944,52.1572333 51.1104,53.0761 49.97888,53.0761 C48.8448,53.0761 47.9232,52.1572333 47.9232,51.0202 C47.9232,49.8831667 48.8448,48.9643 49.97888,48.9643 L49.97888,48.9643 Z M32.91392,40.9896667 C27.23584,39.0261667 20.99968,39.0467 15.34976,41.0487 L14.70976,39.7166 C20.76416,37.5708667 27.456,37.5452 33.54368,39.6524333 L32.91392,40.9896667 L32.91392,40.9896667 Z" id="Shape"></path>
            </g>
        </g>
    </g>
</svg>