<?xml version="1.0" encoding="UTF-8" standalone="no"?>
<svg width="65px" height="44px" viewBox="0 0 65 44" version="1.1" xmlns="http://www.w3.org/2000/svg" xmlns:xlink="http://www.w3.org/1999/xlink" xmlns:sketch="http://www.bohemiancoding.com/sketch/ns">
    <!-- Generator: Sketch 3.0.1 (7597) - http://www.bohemiancoding.com/sketch -->
    <title>Flaticon_12566</title>
    <description>Created with Sketch.</description>
    <defs></defs>
    <g id="Page-1" stroke="none" stroke-width="1" fill="none" fill-rule="evenodd" sketch:type="MSPage">
        <g id="Flaticon_12566" sketch:type="MSLayerGroup" transform="translate(1.000000, 0.000000)" fill="#F36E37">
            <g id="Group" sketch:type="MSShapeGroup">
                <path d="M62.9283137,40.2834118 C61.7574902,39.0680294 61.5956078,37.3809118 61.2078431,35.8126765 C60.7171765,33.8359412 60.2177255,31.8579412 59.7396078,29.8786765 C59.2966275,28.0448529 58.9578039,26.0655882 58.0680784,24.3923824 C57.6715294,23.6424118 57.1883922,22.9417647 56.8872157,22.1424706 C56.5157647,21.1610588 56.2597647,20.1138824 55.9598431,19.1033824 C55.3712941,17.1215882 54.8153725,15.1271471 54.2933333,13.1251176 C53.862902,11.4784706 53.5328627,9.81158824 52.8539608,8.24588235 C51.7684706,5.73797059 49.7606275,3.91047059 47.2332549,2.95435294 C45.4889412,2.29417647 43.6078431,1.87808824 41.8133333,1.37726471 C39.9661176,0.862529412 38.1226667,0.370558824 36.2177255,0.139117647 C34.2387451,-0.101176471 32.3438431,0.208676471 30.3912157,0.502088235 C28.3407059,0.810676471 26.2261961,0.695588235 24.1581176,0.690529412 C20.0809412,0.680411765 16.0075294,0.407235294 11.9328627,0.424941176 C8.01380392,0.442647059 4.08847059,0.913117647 0.322509804,2.02352941 C-0.00376470588,2.11964706 -0.220862745,2.40041176 -0.450509804,2.63185294 C-0.680156863,2.86202941 -0.572235294,3.17567647 -0.522039216,3.45517647 C-0.483137255,3.67397059 -0.245960784,3.827 -0.0376470588,3.827 L3.8374902,3.827 C3.91529412,4.12041176 4.08847059,4.386 4.36580392,4.55673529 C4.98572549,4.93741176 5.35341176,4.70091176 5.80768627,4.23170588 C6.34603922,3.67523529 7.13035294,3.62211765 7.85192157,3.66258824 C8.77929412,3.71444118 9.69913725,3.86114706 10.6302745,3.90161765 C12.6117647,3.98761765 14.5995294,3.91805882 16.5596863,4.27597059 C17.4832941,4.44417647 18.3567059,4.78438235 19.2665098,5.00570588 C20.2277647,5.23967647 21.2166275,5.35982353 22.195451,5.49514706 C23.1981176,5.63426471 24.1204706,5.67094118 24.8859608,6.17555882 C25.6150588,6.65614706 26.1835294,7.35426471 26.5888627,8.12447059 C27.2614902,9.40182353 27.2313725,10.8233529 27.059451,12.2170588 C26.8247843,14.1267647 27.7847843,16.0301471 28.1863529,17.8538529 C28.4272941,18.9490882 28.5201569,20.0683529 28.5138824,21.1876176 C28.5076078,22.3005588 28.2729412,23.3692353 28.172549,24.4682647 C28.0721569,25.5647647 28.1813333,26.7295588 28.1775686,27.8336471 C28.1738039,28.9567059 28.1863529,30.0772353 28.1549804,31.1977647 C28.0997647,33.2339412 27.8224314,35.2815 27.1309804,37.2051176 C26.8021961,38.1207647 26.3152941,38.9832941 25.6903529,39.7244118 C25.0076863,40.5325588 24.0740392,40.8879412 23.1767843,41.3925588 C22.835451,41.5835294 22.8680784,42.0653824 23.1767843,42.2652059 C24.5471373,43.1542941 25.8861176,43.4679412 27.443451,42.8988235 C28.1976471,42.6243824 28.9756863,42.4688235 29.708549,42.1311471 C30.2644706,41.8744118 30.5292549,41.1547941 30.6020392,40.5945294 C30.6936471,39.8875588 30.6873725,39.2779706 31.0613333,38.6430882 C31.5105882,37.8804706 32.3124706,37.2304118 32.9022745,36.5727647 C34.0643137,35.2815 35.1761569,33.9421765 36.1700392,32.5130588 C38.2895686,29.4663824 40.1380392,26.2160882 42.0454902,23.0277647 C43.788549,20.1176765 45.5730196,17.2341471 47.3524706,14.3468235 C48.0501961,15.523 48.7642353,16.6877941 49.3502745,17.9272059 C50.1270588,19.5713235 50.8887843,21.2205 51.6467451,22.8696765 C53.1350588,26.1047941 54.668549,29.3184118 56.1342745,32.5611176 C56.8181961,34.0724412 57.4243137,35.6217059 57.8622745,37.2253529 C58.0881569,38.0461471 58.252549,38.8846471 58.355451,39.7282059 C58.4332549,40.3681471 58.4357647,40.9764706 58.6955294,41.5759412 C59.1937255,42.7255588 60.6644706,42.4346765 61.6294902,42.3613235 C62.1414902,42.3221176 62.9534118,42.2816471 63.2181961,41.7239118 C63.4716863,41.1838824 63.3098039,40.7146765 62.9283137,40.2834118 L62.9283137,40.2834118 Z M61.8729412,41.3305882 C61.465098,41.3761176 61.0509804,41.3950882 60.6393725,41.4317647 C60.2930196,41.4646471 59.8450196,41.5089118 59.6203922,41.1800882 C59.3204706,40.7387059 59.3882353,40.0140294 59.3305098,39.5106765 C59.2451765,38.7973824 59.1071373,38.0929412 58.9402353,37.3935588 C58.2864314,34.6516765 57.0315294,32.0957059 55.8381176,29.5625 C54.5016471,26.7232353 53.2040784,23.865 51.8901961,21.0156176 C51.2426667,19.6155882 50.611451,18.2041765 49.9250196,16.8243824 C49.292549,15.5495588 48.5032157,14.3556765 47.7929412,13.1251176 C47.5996863,12.7899706 47.1228235,12.8051471 46.9258039,13.1251176 C45.1287843,16.0453235 43.3204706,18.9579412 41.5535686,21.8996471 C39.7590588,24.8868824 37.9921569,27.8918235 36.0947451,30.8183529 C35.1824314,32.2221765 34.1948235,33.5513824 33.1080784,34.8236765 C32.5571765,35.4686765 31.987451,36.0972353 31.4152157,36.722 C30.9132549,37.2708824 30.361098,37.7856176 30.0197647,38.4571765 C29.7675294,38.9529412 29.6847059,39.5043529 29.6307451,40.0519706 C29.5981176,40.3871176 29.6144314,40.6742059 29.4563137,40.9815294 C29.2454902,41.3938235 28.6657255,41.4823529 28.2641569,41.6037647 C27.5099608,41.8339412 26.7181176,42.1918529 25.9262745,42.2285294 C25.4180392,42.2512941 24.934902,42.0830882 24.4818824,41.8541765 C24.9110588,41.6366471 25.3389804,41.4115294 25.7129412,41.1130588 C26.355451,40.5983235 26.8636863,39.9090588 27.2903529,39.2071471 C28.134902,37.8185 28.5502745,36.1920882 28.8326275,34.6048824 C29.1727059,32.6875882 29.1814902,30.7386765 29.1789804,28.7973529 C29.1777255,27.8349118 29.2128627,26.8737353 29.1952941,25.9150882 C29.1865098,25.4307059 29.1538824,24.9539118 29.1739608,24.4695294 C29.196549,23.9219118 29.3433725,23.3679706 29.4098824,22.8216176 C29.644549,20.9182353 29.4839216,18.9845 29.0472157,17.1228529 C28.8313725,16.2021471 28.5063529,15.3117941 28.2741961,14.3948824 C28.0119216,13.3628824 28.0621176,12.4409118 28.1574902,11.3962647 C28.3670588,9.13497059 27.4748235,6.86229412 25.6589804,5.49388235 C24.7479216,4.80714706 23.8117647,4.71229412 22.6873725,4.55041176 C21.555451,4.38852941 20.4235294,4.24561765 19.3116863,3.97497059 C18.1948235,3.70305882 17.1419608,3.31985294 15.9962353,3.16555882 C13.6759216,2.85191176 11.328,3.00620588 9.00015686,2.77729412 C8.11043137,2.69002941 7.26462745,2.54964706 6.38117647,2.77223529 C6.00094118,2.86835294 5.64831373,3.06944118 5.34086275,3.30847059 C5.184,3.42988235 5.0547451,3.57279412 4.92423529,3.71823529 C4.90666667,3.70558824 4.91168627,3.69294118 4.87278431,3.67902941 C4.78870588,3.62338235 4.76235294,3.54876471 4.79372549,3.45517647 C4.87780392,3.13773529 4.63811765,2.81523529 4.30933333,2.81523529 L1.18713725,2.81523529 C1.74556863,2.61541176 2.3705098,2.51423529 2.90509804,2.39282353 C3.9065098,2.16391176 4.92047059,1.98811765 5.93694118,1.84267647 C7.92094118,1.55811765 9.93129412,1.45314706 11.9328627,1.43544118 C13.9507451,1.41773529 15.9661176,1.54673529 17.9827451,1.60870588 C20.0407843,1.67194118 22.1000784,1.69470588 24.1581176,1.70102941 C26.1935686,1.70735294 28.262902,1.80220588 30.284549,1.52902941 C32.2886275,1.25838235 34.1835294,0.929558824 36.2152157,1.14961765 C38.182902,1.36208824 40.1116863,1.94764706 42.0116078,2.48261765 C43.763451,2.97585294 45.593098,3.38182353 47.283451,4.05211765 C49.8158431,5.05629412 51.5061961,7.22147059 52.3695686,9.76352941 C52.9556078,11.4885882 53.2956863,13.3135588 53.7712941,15.0727647 C54.310902,17.0684706 54.8919216,19.0515294 55.4905098,21.0333235 C55.744,21.8680294 55.987451,22.6862941 56.3890196,23.4615588 C56.7792941,24.2178529 57.2661961,24.9134412 57.5849412,25.7038824 C57.9375686,26.5777941 58.124549,27.5554118 58.3567059,28.4685294 C58.6014118,29.4271765 58.8298039,30.3883529 59.0607059,31.3482647 C59.4974118,33.1707059 60.006902,34.9830294 60.4097255,36.8117941 C60.7498039,38.3484118 61.0974118,39.8357059 62.2180392,40.9992353 L62.2180392,40.9992353 C62.4828235,41.3002353 62.1552941,41.2977059 61.8729412,41.3305882 L61.8729412,41.3305882 Z" id="Shape"></path>
                <path d="M39.7013333,10.7158529 C38.9546667,10.2099706 37.7273725,10.2555 36.889098,10.3756471 C35.7810196,10.535 34.7783529,11.1825294 33.8246275,11.7238235 C32.8508235,12.2765 31.7766275,12.5825588 31.1730196,13.6044412 C30.5681569,14.6275882 30.8467451,16.0465882 30.9195294,17.1620588 C31.0261961,18.8150294 31.1905882,20.4629412 31.3047843,22.1159118 C31.3549804,22.8393235 31.398902,23.5652647 31.3750588,24.2912059 C31.347451,25.1436176 31.1504314,26.0036176 31.0098824,26.8471765 C30.732549,28.4925588 30.4225882,30.1328824 30.1327059,31.7744706 C30.08,32.0716765 30.2117647,32.2816176 30.4828235,32.3967059 C30.5543529,32.4245294 30.6271373,32.4574118 30.6986667,32.4865 C30.9107451,32.5737647 31.1529412,32.4245294 31.2658824,32.2525294 C32.2346667,30.7639706 33.2749804,29.3222059 34.2161569,27.8134118 C35.1334902,26.3438235 35.8676078,24.7882353 36.4988235,23.1757353 C37.8315294,19.7711471 38.9872941,16.2628529 39.9799216,12.7431765 L39.9799216,12.7406471 C40.1593725,12.0766765 40.3802353,11.1762059 39.7013333,10.7158529 L39.7013333,10.7158529 Z M35.6128627,22.6926176 C34.5775686,25.4218529 33.0214902,27.7805294 31.4327843,30.1720882 C31.5582745,29.4802941 31.6825098,28.7885 31.8042353,28.0954412 C32.038902,26.7624412 32.3400784,25.4028824 32.384,24.0483824 C32.4266667,22.747 32.2597647,21.4253824 32.153098,20.1303235 C32.0363922,18.7302941 31.9171765,17.3264706 31.8506667,15.9201176 C31.8017255,14.9032941 31.7916863,14.0255882 32.716549,13.4147353 C33.1156078,13.1516765 33.5912157,12.9935882 34.0128627,12.7697353 C34.4909804,12.5155294 34.9540392,12.2335 35.4296471,11.9767647 C36.3557647,11.4797353 37.2843922,11.2331176 38.3322353,11.3583235 C38.5618824,11.3861471 38.9647059,11.395 39.1491765,11.5568824 C39.2884706,11.6833529 39.0437647,12.3334118 39.0086275,12.4674706 C38.0385882,15.9226471 36.8840784,19.3398824 35.6128627,22.6926176 L35.6128627,22.6926176 Z" id="Shape"></path>
                <path d="M25.7606275,12.7140882 C25.7606275,12.7090294 25.7631373,12.7052353 25.7631373,12.6989118 C25.7192157,9.88620588 23.7791373,7.46176471 21.0346667,6.88379412 C18.329098,6.31467647 15.5030588,7.85129412 14.4501961,10.4148529 C13.3659608,13.0542941 14.3272157,16.0377353 16.6312157,17.6451765 C18.9452549,19.2589412 22.1502745,18.7922647 24.0953725,16.8345 C25.1758431,15.7468529 25.7342745,14.2367941 25.7606275,12.7140882 L25.7606275,12.7140882 Z M19.8801569,17.6173529 C17.1871373,17.6603529 15.0412549,15.3472059 14.9998431,12.6989118 C14.9571765,9.98485294 17.2523922,7.82220588 19.8801569,7.78047059 C22.5731765,7.73747059 24.7190588,10.0493529 24.7604706,12.6989118 C24.7178039,15.4129706 22.5731765,17.5743529 19.8801569,17.6173529 L19.8801569,17.6173529 Z" id="Shape"></path>
            </g>
        </g>
    </g>
</svg>