<?xml version="1.0" encoding="UTF-8" standalone="no"?>
<svg width="65px" height="49px" viewBox="0 0 65 49" version="1.1" xmlns="http://www.w3.org/2000/svg" xmlns:xlink="http://www.w3.org/1999/xlink" xmlns:sketch="http://www.bohemiancoding.com/sketch/ns">
    <!-- Generator: Sketch 3.0.1 (7597) - http://www.bohemiancoding.com/sketch -->
    <title>Flaticon_11034</title>
    <description>Created with Sketch.</description>
    <defs></defs>
    <g id="Page-1" stroke="none" stroke-width="1" fill="none" fill-rule="evenodd" sketch:type="MSPage">
        <g id="Flaticon_11034" sketch:type="MSLayerGroup" fill="#F36E37">
            <g id="Group" sketch:type="MSShapeGroup">
                <ellipse id="Oval" cx="12.8828852" cy="4.279" rx="4.48944262" ry="4.279"></ellipse>
                <path d="M16.1531803,29.988 C16.1521311,29.98 16.151082,29.976 16.1500328,29.967 C14.9676066,25.776 14.6434098,21.394 14.2384262,17.021 L22.4650492,21.212 C22.8144262,21.391 23.1921311,21.474 23.563541,21.474 C24.3965902,21.474 25.2023607,21.05 25.623082,20.3 C26.2295082,19.217 25.8014426,17.868 24.6641311,17.289 L12.9038689,11.296 C12.6006557,11.142 12.2785574,11.062 11.9575082,11.042 C11.6647869,10.876 11.339541,10.751 10.9859672,10.667 C10.6313443,10.509 10.2347541,10.425 9.81613115,10.458 C4.14636066,10.9 2.90832787,14.506 2.00393443,17.14 C1.664,18.134 1.34085246,19.072 0.832,19.904 C0.182557377,20.965 0.559213115,22.328 1.67134426,22.946 C2.04170492,23.152 2.44563934,23.249 2.84537705,23.249 C3.648,23.249 4.42963934,22.855 4.86295082,22.146 C5.62360656,20.904 6.05691803,19.639 6.44091803,18.522 C6.44196721,18.518 6.44301639,18.515 6.44406557,18.51 C6.85534426,23.023 7.27501639,27.634 8.48262295,31.925 C9.05862295,33.971 10.8264918,34.755 12.5356066,34.612 C12.788459,34.7 13.0539016,34.758 13.3371803,34.766 C17.122623,34.862 21.1777049,35.378 22.2268852,35.897 C22.6601967,36.626 23.1921311,39.875 22.2971803,46.085 C22.1041311,47.423 23.0872131,48.658 24.4920656,48.842 C24.610623,48.857 24.7291803,48.865 24.8445902,48.865 C26.1078033,48.865 27.2073443,47.975 27.3846557,46.75 C28.48,39.147 27.9344262,34.293 25.7615738,32.324 C24.1342951,30.848 20.0393443,30.229 16.1531803,29.988 L16.1531803,29.988 Z" id="Shape"></path>
                <path d="M4.63003279,24.92 L0.700852459,24.92 L0.694557377,47.275 L19.7319344,47.275 L20.898623,37.045 L7.43134426,35.932 L4.63003279,24.92 Z" id="Shape"></path>
                <ellipse id="Oval" cx="51.7036066" cy="4.28" rx="4.4904918" ry="4.28"></ellipse>
                <path d="M51.252459,34.425 C51.5367869,34.418 51.8011803,34.358 52.0540328,34.27 C53.7673443,34.416 55.5299672,33.628 56.1070164,31.586 C57.314623,27.295 57.7342951,22.685 58.1445246,18.171 C58.1455738,18.175 58.1476721,18.179 58.1487213,18.183 C58.5316721,19.3 58.9649836,20.565 59.7256393,21.807 C60.16,22.516 60.9405902,22.912 61.7442623,22.912 C62.144,22.912 62.5521311,22.813 62.9182951,22.607 C64.0314754,21.989 64.4081311,20.626 63.7586885,19.565 C63.2519344,18.733 62.9266885,17.794 62.5867541,16.8 C61.6855082,14.167 60.445377,10.559 54.7777049,10.119 C54.3622295,10.087 53.9687869,10.17 53.6162623,10.327 C53.2270164,10.418 52.8723934,10.564 52.5523934,10.755 C52.352,10.806 52.1442623,10.873 51.9543607,10.976 L45.3791475,14.492 L39.7167213,11.169 C38.5363934,10.478 36.9888525,10.829 36.2680656,11.954 C35.5420328,13.078 35.9092459,14.551 37.0895738,15.241 L44.0099672,19.3 C44.4128525,19.536 44.864,19.654 45.323541,19.654 C45.7453115,19.654 46.1691803,19.551 46.551082,19.348 L50.2987541,17.343 C49.9189508,21.495 49.570623,25.645 48.4448525,29.627 C48.4438033,29.634 48.4427541,29.641 48.4406557,29.647 C44.5544918,29.887 40.4626885,30.505 38.8322623,31.981 C36.6615082,33.953 36.1127869,38.805 37.2081311,46.411 C37.3864918,47.637 38.4891803,48.522 39.7492459,48.522 C39.8657049,48.522 39.9853115,48.514 40.1038689,48.501 C41.5097705,48.314 42.4886557,47.082 42.2987541,45.743 C41.4027541,39.533 41.9325902,36.288 42.3659016,35.555 C43.4108852,35.039 47.464918,34.521 51.252459,34.425 L51.252459,34.425 Z" id="Shape"></path>
                <path d="M59.9585574,24.579 L57.1593443,35.591 L43.6931148,36.701 L44.8587541,46.936 L63.895082,46.936 L63.8898361,24.579 L59.9585574,24.579 Z" id="Shape"></path>
            </g>
        </g>
    </g>
</svg>